<?xml version="1.0" encoding="UTF-8" standalone="no"?>
<!-- Created with Inkscape (http://www.inkscape.org/) -->

<svg
   width="98.432381mm"
   height="69.219002mm"
   viewBox="0 0 98.432377 69.219003"
   version="1.1"
   id="svg5"
   xml:space="preserve"
   inkscape:version="1.2.1 (9c6d41e410, 2022-07-14)"
   sodipodi:docname="validiraptor.svg"
   inkscape:export-filename="allosaurus.png"
   inkscape:export-xdpi="300"
   inkscape:export-ydpi="300"
   xmlns:inkscape="http://www.inkscape.org/namespaces/inkscape"
   xmlns:sodipodi="http://sodipodi.sourceforge.net/DTD/sodipodi-0.dtd"
   xmlns:xlink="http://www.w3.org/1999/xlink"
   xmlns="http://www.w3.org/2000/svg"
   xmlns:svg="http://www.w3.org/2000/svg"
   xmlns:rdf="http://www.w3.org/1999/02/22-rdf-syntax-ns#"
   xmlns:cc="http://creativecommons.org/ns#"
   xmlns:dc="http://purl.org/dc/elements/1.1/"><metadata
     id="metadata55"><rdf:RDF><cc:Work
         rdf:about=""><dc:format>image/svg+xml</dc:format><dc:type
           rdf:resource="http://purl.org/dc/dcmitype/StillImage" /><dc:title /></cc:Work></rdf:RDF></metadata><sodipodi:namedview
     id="namedview7"
     pagecolor="#ffffff"
     bordercolor="#000000"
     borderopacity="0.25"
     inkscape:showpageshadow="2"
     inkscape:pageopacity="0.0"
     inkscape:pagecheckerboard="0"
     inkscape:deskcolor="#d1d1d1"
     inkscape:document-units="mm"
     showgrid="false"
     inkscape:zoom="0.81090835"
     inkscape:cx="310.76262"
     inkscape:cy="283.63255"
     inkscape:window-width="1920"
     inkscape:window-height="1017"
     inkscape:window-x="-8"
     inkscape:window-y="-8"
     inkscape:window-maximized="1"
     inkscape:current-layer="layer1"
     inkscape:snap-global="false" /><defs
     id="defs2"><linearGradient
   id="linearGradient2257"
   inkscape:swatch="solid"><stop
     style="stop-color:#445500;stop-opacity:1;"
     offset="0"
     id="stop2255" /></linearGradient><pattern
   inkscape:collect="always"
   xlink:href="#pattern1522"
   id="pattern2244"
   patternTransform="matrix(0.81593662,0,0,0.81593662,-1.1643297,2.7046989)" />
	
	
	
	
	
	
	
	
	
	
	

	
	
	
	
	
	
	
	
	
	
	
<pattern
   patternUnits="userSpaceOnUse"
   width="9.1260472"
   height="29.63074"
   patternTransform="matrix(0.26458333,0,0,0.26458333,1216.6775,254.91538)"
   id="pattern1522"><g
     id="text1517"
     style="font-size:8.91000175px;line-height:1.25;font-family:'Courier New';-inkscape-font-specification:'Courier New, Normal';text-decoration:none;text-decoration-line:none;text-decoration-color:#000000;letter-spacing:0px;word-spacing:0px;fill:#800000;fill-opacity:1;stroke:none;stroke-width:0.7888543;stroke-opacity:0.5098038"
     aria-label="}"
     transform="matrix(3.7795276,0,0,3.7795276,-4598.4661,-963.4597)"><path
       id="path1519"
       style="font-style:normal;font-variant:normal;font-weight:bold;font-stretch:normal;font-family:Garamond;-inkscape-font-specification:'Garamond Bold';fill:#800000;stroke:none;stroke-width:0.7888543"
       d="m 1216.6775,262.75479 v -0.20013 q 0.4307,-0.0827 0.6396,-0.30889 0.2088,-0.22188 0.2088,-0.50902 0,-0.28714 -0.1044,-0.7222 -0.1044,-0.43071 -0.1044,-0.75265 0,-0.30019 0.174,-0.60473 0.174,-0.30889 0.509,-0.52642 0.2306,-0.14792 0.7352,-0.28714 -0.5394,-0.16967 -0.7831,-0.335 -0.3263,-0.22188 -0.4872,-0.52207 -0.161,-0.30019 -0.161,-0.56992 0,-0.26104 0.1044,-0.6961 0.1088,-0.43506 0.1088,-0.75265 0,-0.31324 -0.1958,-0.53512 -0.1958,-0.22188 -0.6439,-0.31324 v -0.20013 l 0.1523,-0.004 q 0.77,0 1.2747,0.52642 0.3698,0.3872 0.3698,0.85707 0,0.29584 -0.1349,0.81791 -0.1,0.3872 -0.1,0.69174 0,0.3437 0.2132,0.58733 0.2175,0.24363 0.6395,0.30889 v 0.26539 q -0.422,0.0696 -0.6395,0.32194 -0.2132,0.25233 -0.2132,0.61343 0,0.29584 0.096,0.66564 0.1305,0.51772 0.1305,0.78746 0,0.28714 -0.1697,0.57428 -0.1653,0.29149 -0.422,0.47421 -0.2567,0.18272 -0.5612,0.26539 -0.2349,0.0652 -0.6352,0.0827 z"
       inkscape:connector-curvature="0" /></g></pattern><pattern
   patternUnits="userSpaceOnUse"
   width="16.399799"
   height="25.150757"
   patternTransform="matrix(0.26458333,0,0,0.26458333,1154.864,304.02572)"
   id="pattern2250"><rect
     transform="rotate(-23.293356)"
     id="rect1526"
     y="2.7045443"
     x="-1.164389"
     height="24.176805"
     width="7.4462757"
     style="fill:url(#pattern2244);stroke:none;stroke-width:3.08385491" /></pattern></defs><g
     inkscape:label="Ebene 1"
     inkscape:groupmode="layer"
     id="layer1"
     transform="translate(-1203.8147,-286.62638)"><path
   style="font-style:normal;font-variant:normal;font-weight:bold;font-stretch:normal;font-size:22.38487244px;line-height:1.25;font-family:'Open Sans';-inkscape-font-specification:'Open Sans Bold';text-align:center;text-decoration:none;text-decoration-line:none;text-decoration-color:#000000;letter-spacing:0px;word-spacing:0px;text-anchor:middle;fill:#000000;fill-opacity:1;stroke:none;stroke-width:3.10365558;stroke-opacity:0.56862745"
   d="m 258.74414,136.35156 c -1.92083,4.70361 -4.59751,8.95305 -8.92773,12.23828 2.42272,-0.97159 4.25044,-1.2142 5.47461,-0.71484 1.24018,0.50589 2.20817,1.69143 2.90234,3.55859 l 4.44726,11.96485 c 2.01079,4.94964 5.95476,6.64714 11.83204,5.09375 l 0.17773,0.48047 c -2.63808,1.69986 -4.40806,3.58812 -5.3125,5.66796 -0.91435,2.05318 -0.94464,4.22754 -0.0918,6.52149 l 0.16211,0.43945 4.44922,11.96485 c 0.70409,1.89384 0.76017,3.49959 0.16992,4.81836 -0.56584,1.30792 -2.04702,2.52404 -4.44336,3.65039 l 3.36133,9.04296 c 4.07577,-1.81 7.12791,-3.58522 9.1543,-5.32421 2.06071,-1.72316 3.30876,-3.56648 3.74414,-5.53125 0.43538,-1.96478 0.097,-4.44027 -1.01367,-7.42774 l -4.68555,-12.60351 c -0.96193,-2.58736 -0.85361,-4.78001 0.32617,-6.57813 1.2042,-1.80895 3.33209,-3.3913 6.38282,-4.74609 l -3.55469,-9.5625 c -3.24597,1.4415 -5.83401,1.93855 -7.76367,1.49023 -1.90526,-0.45916 -3.27442,-1.81018 -4.10743,-4.05078 l -0.14843,-0.39844 -4.73047,-12.72461 c -1.09085,-2.93411 -2.41848,-4.93959 -3.98438,-6.01562 -1.04083,-0.74708 -2.31812,-1.15933 -3.82031,-1.25391 z"
   transform="matrix(0.26458333,0,0,0.26458333,1198.2966,281.63854)"
   id="text4589"
   inkscape:connector-curvature="0" /><path
   inkscape:connector-curvature="0"
   id="path2246"
   d="m 1274.0207,286.62687 c -1.0491,-0.0104 -2.1051,0.14609 -3.0102,0.44803 -2.5033,1.14197 -5.5508,3.08217 -6.6141,6.84041 -0.7263,9.45094 -3.4511,11.76629 -4.7511,12.64626 -10.587,1.56987 -16.7067,6.00813 -24.044,6.41873 -10.6218,0.5944 -23.3312,0.7875 -31.4689,2.46444 -0.5765,1.1016 -0.7178,1.04179 2.698,0.40928 9.2827,0.4535 18.6552,2.74596 27.8598,6.19032 0.1775,2.8797 3.7494,5.93541 3.1487,8.03 0,0 -1.1955,1.19576 -1.6671,2.22881 -0.6949,1.33127 -0.9421,3.18734 -1.202,4.20284 -0.2597,1.01545 -1.3744,1.2588 -1.3586,2.28151 -0.8896,0.59256 -1.5809,1.78148 -0.6506,5.12321 1.3334,4.78959 -0.09,8.86577 1.1746,10.48411 0.6083,3.53495 6.3089,-0.86448 9.4558,1.45056 -1.0389,-2.11833 -1.9106,-2.64578 -3.8075,-4.95784 2.405,0.3748 -0.31,-4.97705 2.1414,-3.6282 -1.82,-2.719 -2.4263,-0.14602 -3.3925,1.36891 -2.3856,-4.46239 -1.9797,-4.91982 -2.6707,-8.19072 3.462,-2.61865 5.5986,-5.91962 9.2196,-8.99686 -0.4834,1.6633 -0.2493,4.11898 -3.0117,7.74888 -0.3969,4.4724 0.2468,9.04517 1.2325,12.91394 1.8708,2.53468 8.3732,1.63458 11.8003,1.49035 -3.048,-4.82699 -5.8069,-1.59141 -6.5655,-4.48293 -0.5459,-0.67489 -1.0801,-1.52961 -1.5435,-2.46394 0.1092,-0.37525 0.3926,-0.50674 1.0599,-0.13952 -0.6901,-1.03106 -1.2055,-1.29914 -1.6325,-1.15445 -0.9705,-2.47141 -1.3252,-5.16943 -0.1111,-6.54534 2.4029,-2.1321 7.916,-5.77818 6.9572,-8.84029 -0.3218,-1.02771 0.5282,-2.17768 0.6108,-3.46852 1.3957,-4.10317 6.555,-2.22266 9.6661,-4.99194 4.2644,-2.34723 3.69,-7.50839 5.5712,-11.33885 1.2134,-3.57049 2.2331,-8.48259 5.9108,-10.21178 2.1501,0.71391 4.5344,1.37227 6.8249,1.68931 2.033,0.48893 4.2187,-0.23009 5.5376,-1.48518 -0.092,0.0236 -0.1622,0.0372 -0.1622,0.0372 0,0 -0.4878,-0.24142 -0.9917,-0.48782 0.6606,-1.78084 0.8995,-3.42416 0.7622,-4.94492 -0.479,1.55629 -1.1996,2.98278 -2.1859,4.26641 -0.1726,-0.0798 -0.3644,-0.17033 -0.4827,-0.22066 -0.057,0.002 -0.1124,-9e-4 -0.1689,-5.3e-4 0.5892,-1.27349 0.7332,-2.59008 0.8976,-3.90467 -0.651,1.32904 -1.2993,2.65956 -2.3472,3.79098 -0.277,-0.0457 -0.5492,-0.102 -0.8149,-0.17105 0.5286,-1.36282 0.5514,-2.5696 0.7875,-3.84214 -0.5805,1.18566 -1.0872,2.40608 -1.9202,3.47472 -0.3877,-0.14914 -0.7626,-0.31869 -1.1292,-0.49919 0.3071,-0.75427 0.4677,-1.55738 0.6393,-2.35696 -0.4428,0.67118 -0.8248,1.38356 -1.4392,1.9389 -2.5099,-1.38471 -4.5966,-3.12626 -6.8621,-2.75022 1.1848,-0.23513 2.2098,-1.2685 4.717,-1.14929 0.7791,0.037 1.6377,0.0563 2.5352,0.0651 0.048,1.05358 -0.3973,1.92774 -0.7395,2.83962 0.7764,-0.86604 1.572,-1.71837 1.9968,-2.83548 0.2602,-4.5e-4 0.5182,-6.1e-4 0.7829,-0.003 -0.07,1.3495 -0.4837,2.60101 -0.8191,3.87469 0.7248,-1.23881 1.5955,-2.24427 2.0671,-3.88813 0.3757,-0.006 0.7524,-0.0165 1.1307,-0.0243 -0.088,1.29774 -0.447,2.51842 -0.8041,3.73931 0.8176,-1.15587 1.6545,-2.29718 2.0526,-3.76773 0.4256,-0.0108 0.818,-0.0245 1.2387,-0.0362 -0.061,0.97198 -0.2679,1.90267 -0.6093,2.79466 0.7462,-0.70316 1.339,-1.63744 1.7601,-2.82825 0.5402,-0.0162 1.1119,-0.0304 1.6257,-0.0476 0.033,0 0.06,2.9e-4 0.086,0.003 0.3128,-1.49782 -0.1741,-2.96196 -1.8335,-3.69899 -2.1701,-0.96386 -7.6878,-0.90136 -9.4552,-1.988 -0.9942,-0.61128 -2.3329,-0.90042 -3.6819,-0.91364 z m -0.092,1.14721 c 0.903,8e-5 1.635,0.64025 1.635,1.43041 0,0.79017 -0.732,1.43084 -1.635,1.43092 -0.9032,1.1e-4 -1.6356,-0.64062 -1.6356,-1.43092 0,-0.7903 0.7324,-1.43052 1.6356,-1.43041 z"
   style="fill:#445500;fill-opacity:0.50853242;stroke:none;stroke-width:0.52877384;stroke-miterlimit:4;stroke-dasharray:none;stroke-opacity:0.56862745" /><path
   style="fill:#badffd;stroke-width:0.0271801"
   inkscape:connector-curvature="0"
   id="path1000"
   d="m 1288.5102,296.88419 c 0.016,-0.0119 0.5621,-0.46279 1.2766,-0.75728 0.3107,-0.12545 0.6331,-0.22216 0.9636,-0.28402 1.93,-0.36663 3.7141,0.65012 4.8148,2.19493 0.8453,1.18644 1.3838,2.61817 1.9065,3.96613 0.2845,0.7338 0.4788,1.57535 1.1129,2.09951 -0.2095,-0.17321 -1.0213,-0.84581 -1.1692,-1.07705 -0.1474,-0.23206 -2.7123,-7.40523 -6.5044,-6.44655 -0.2745,0.0693 -0.5422,0.16821 -0.798,0.29072 -0.1278,0.0615 -0.2526,0.12883 -0.3732,0.20146 -0.06,0.0366 -0.1191,0.0741 -0.1763,0.11295 -0.028,0.0195 -0.056,0.0391 -0.083,0.0588 l -0.039,0.0294 -0.018,0.0143 c 0,0.004 -0.013,0.0104 -0.012,0.0103 z" /><path
   style="fill:#badffd;stroke-width:0.0271801"
   inkscape:connector-curvature="0"
   id="path1002"
   d="m 1295.9658,304.8966 c -0.2064,0.0163 -0.4134,0.0126 -0.6197,0.001 -0.2065,-0.011 -0.4126,-0.0331 -0.6179,-0.0619 -0.4104,-0.0599 -0.8174,-0.15432 -1.2171,-0.28238 -0.3987,-0.12993 -0.7909,-0.2934 -1.1634,-0.50381 -0.1877,-0.10227 -0.3674,-0.22163 -0.544,-0.34612 -0.1731,-0.13033 -0.3437,-0.26548 -0.4999,-0.41981 -0.081,-0.0741 -0.1535,-0.15693 -0.2289,-0.237 l -0.028,-0.0306 -0.026,-0.032 -0.053,-0.0641 -0.052,-0.0643 c -0.017,-0.0214 -0.035,-0.0424 -0.051,-0.0654 l -0.096,-0.13548 c -0.016,-0.0221 -0.033,-0.0463 -0.047,-0.0668 l -0.042,-0.0625 -0.1657,-0.25094 -0.6672,-1.00236 c -0.2236,-0.33412 -0.4489,-0.66752 -0.6762,-1.00216 l -0.085,-0.12586 c -0.028,-0.0418 -0.058,-0.0828 -0.086,-0.12508 l -0.1714,-0.25184 -0.348,-0.506 c 0.1751,0.11098 0.3381,0.23752 0.4983,0.36728 0.1595,0.13068 0.3145,0.2664 0.4651,0.40655 0.3014,0.28031 0.5862,0.57745 0.859,0.88421 0.2741,0.30623 0.5307,0.62643 0.7794,0.95287 l 0.1832,0.24697 0.046,0.0621 c 0.015,0.0211 0.029,0.037 0.043,0.0561 l 0.084,0.10946 c 0.027,0.0366 0.06,0.0704 0.089,0.10592 l 0.045,0.0526 0.022,0.0264 0.024,0.025 c 0.064,0.067 0.1255,0.13613 0.1949,0.19895 0.034,0.0322 0.067,0.0652 0.101,0.0968 l 0.106,0.0924 0.053,0.0465 0.055,0.0442 0.1102,0.0889 c 0.1511,0.1141 0.3047,0.22657 0.4669,0.32905 0.3215,0.20938 0.665,0.39355 1.0183,0.5654 0.3543,0.17058 0.7207,0.32473 1.0946,0.46956 0.3749,0.14416 0.7565,0.27821 1.1479,0.40762 z" /><path
   style="fill:#226654;stroke-width:0.10272793"
   d="m 318.90039,47.091797 c -0.0942,0.245062 -0.18029,0.504149 -0.27734,0.744141 a 1.5031904,1.5031904 0 0 1 0.98437,0.126953 c -0.24744,-0.286209 -0.48085,-0.577262 -0.70703,-0.871094 z m 4.89258,7.712891 c -0.65969,1.001967 -1.31996,2.002203 -1.98438,2.988281 0.0586,0.03569 0.11799,0.0717 0.17774,0.107422 0.63116,-1.01238 1.23819,-2.040491 1.80664,-3.095703 z m 4.81836,0.923828 c -0.26242,1.646096 -0.60271,3.294545 -1.05664,4.947265 0.23744,0.102102 0.49043,0.203141 0.73242,0.304688 0.94088,-1.521083 1.78522,-3.094476 2.55469,-4.708985 -0.16925,-0.09144 -0.3395,-0.180853 -0.50782,-0.273437 a 1.5031904,1.5031904 0 0 1 -1.72265,-0.269531 z m 7.73242,3.292968 c -0.24564,1.52694 -0.57813,3.079502 -0.99609,4.65625 6.57086,2.346518 12.9223,4.270019 14.60742,5.019532 3.80069,1.691225 9.71995,13.193339 26.74219,18.755859 0,0 -14.97277,-7.840366 -23.55079,-20.070313 -1.46653,-2.091652 -8.93814,-4.702943 -16.80273,-8.361328 z"
   transform="matrix(0.26458333,0,0,0.26458333,1198.2966,281.63854)"
   id="path1004"
   inkscape:connector-curvature="0" /><path
   style="fill:#40907a;stroke-width:0.0271801"
   inkscape:connector-curvature="0"
   id="path1006"
   d="m 1290.9437,295.11292 c 0.028,0.36352 0.025,0.70153 0,1.01588 -0.081,0.92934 -0.3824,1.64904 -0.7541,2.19857 -0.2322,0.34263 -0.4919,0.61903 -0.7436,0.8386 -0.023,0.0197 -0.046,0.0393 -0.068,0.0583 -0.1629,0.13683 -0.3278,0.25535 -0.4882,0.35763 -0.5124,0.32795 -1.004,0.50119 -1.2256,0.56696 -0.1217,-0.31733 -0.1709,-0.68922 -0.3003,-1.05512 0,-0.001 0.2786,-0.0587 0.6926,-0.28194 0.2054,-0.11057 0.4332,-0.25706 0.655,-0.44786 0.1441,-0.12381 0.2752,-0.25662 0.3927,-0.39797 0.3184,-0.3823 0.5389,-0.82803 0.6611,-1.33467 0.084,-0.34638 0.1212,-0.72084 0.1124,-1.12318 0.482,-0.33334 1.0686,-0.39521 1.0686,-0.39521 z" /><path
   style="fill:#96ce58;stroke-width:0.0271801"
   inkscape:connector-curvature="0"
   id="path1008"
   d="m 1292.6867,294.8398 v 0 c 0.4065,-0.0153 0.7867,0.0212 1.1429,0.10453 -0.1286,0.2785 -0.3377,0.7704 -0.5801,1.48888 -0.1701,0.50315 -0.3563,1.11761 -0.5431,1.84782 -0.1329,0.51987 -0.3808,1.00688 -0.7362,1.4518 -0.1148,0.14375 -0.2408,0.28327 -0.3778,0.41796 -0.3934,0.38707 -0.8771,0.73577 -1.4446,1.03851 -0.045,0.0242 -0.091,0.0481 -0.1372,0.0716 -0.7308,0.37178 -1.4175,0.58224 -1.7843,0.67936 -0.1309,-0.30592 -0.2617,-0.64475 -0.395,-1.02166 0.2442,-0.0601 0.9088,-0.24232 1.622,-0.59539 0.3929,-0.19431 0.8006,-0.44056 1.1605,-0.74707 0.2175,-0.1849 0.4174,-0.39167 0.5865,-0.62189 0.2043,-0.27885 0.3632,-0.59159 0.4529,-0.94252 0.1838,-0.71872 0.3672,-1.33144 0.5377,-1.84298 0.1872,-0.56283 0.3586,-1.00361 0.4958,-1.3289 z" /><path
   style="fill:#f7c545;stroke-width:0.0271801"
   inkscape:connector-curvature="0"
   id="path1010"
   d="m 1294.5562,295.19282 c 0.4225,0.19419 0.8059,0.46451 1.1536,0.80097 -0.1145,0.33559 -0.2949,0.92415 -0.5267,1.8746 -0.087,0.35843 -0.1819,0.76822 -0.283,1.23556 -0.216,0.99804 -0.6026,1.78304 -1.0712,2.41363 -0.154,0.20695 -0.3166,0.39743 -0.485,0.57298 -0.4765,0.49778 -0.9987,0.87853 -1.4949,1.1889 -0.3204,0.20056 -0.6296,0.37183 -0.9092,0.52649 -0.3864,0.21392 -0.7553,0.41802 -0.961,0.59866 -0.347,-0.2606 -0.6558,-0.57046 -0.9457,-0.97632 0.3242,-0.29974 0.7598,-0.54103 1.2487,-0.81135 0.208,-0.11514 0.4241,-0.23481 0.6427,-0.3649 0.5152,-0.30643 1.042,-0.67027 1.4977,-1.16506 0.1427,-0.15463 0.2781,-0.32247 0.4045,-0.5051 l 2e-4,-1e-4 c 0.3271,-0.47406 0.5901,-1.04905 0.745,-1.76524 0.1738,-0.80428 0.3302,-1.44907 0.4663,-1.96261 0.2446,-0.92514 0.423,-1.42439 0.518,-1.66111 z" /><path
   style="fill:#f19934;stroke-width:0.0271801"
   inkscape:connector-curvature="0"
   id="path1012"
   d="m 1296.6787,297.23662 v 0 l -0.057,-0.0856 c -0.1048,0.71204 -0.2884,1.41481 -0.549,2.10223 -0.185,0.48963 -0.4095,0.97139 -0.6721,1.4427 -0.2686,0.48233 -0.5772,0.95467 -0.9231,1.41358 -0.1511,0.20046 -0.3092,0.39796 -0.4743,0.59301 -0.1733,0.20432 -0.3542,0.40529 -0.5423,0.60305 -0.2219,0.2332 -0.4343,0.43772 -0.6342,0.61658 -1.0052,0.89793 -1.6963,1.14902 -1.6963,1.14902 0,0 0.8941,0.57013 1.4002,0.53909 0,0 0.3373,-0.11377 1.5145,-1.16639 0.073,-0.0744 0.1502,-0.15336 0.2305,-0.23733 0.2422,-0.2533 0.4734,-0.51203 0.693,-0.77599 0.1403,-0.1687 0.276,-0.33956 0.4068,-0.51225 0.3805,-0.50172 0.7202,-1.01921 1.0164,-1.54877 0.1347,-0.24101 0.2562,-0.50042 0.3644,-0.762 0.3151,-0.76194 0.5185,-1.54371 0.6137,-1.95189 l -2e-4,-2.5e-4 z" /><path
   style="fill:#95c5e5;stroke-width:0.0271801"
   inkscape:connector-curvature="0"
   id="path1014"
   d="m 1298.331,301.10881 c 0.2457,0.56633 0.4844,1.06974 0.7146,1.51756 -0.3462,0.16212 -0.7058,0.41236 -1.0712,0.74407 -0.3112,0.28204 -0.6261,0.62291 -0.9407,1.01804 -0.01,0.008 -0.012,0.0153 -0.018,0.0232 -0.1077,0.1361 -0.2153,0.27866 -0.3228,0.42732 -0.3881,0.53774 -0.6903,1.04419 -0.875,1.37346 0,0 -0.9918,-0.0889 -1.4223,-0.22188 0,0 0.4036,-0.53916 0.913,-1.2042 0.1965,-0.25651 0.4093,-0.53327 0.6226,-0.80878 0.087,-0.1119 0.1734,-0.22345 0.2591,-0.33373 0.5562,-0.71318 1.0693,-1.35565 1.2442,-1.52829 4e-4,-4.6e-4 8e-4,-9.2e-4 0,-0.001 0.3339,-0.32962 0.612,-0.72266 0.8955,-1.00561 z" /><path
   style="fill:#0877bd;stroke-width:0.0271801"
   inkscape:connector-curvature="0"
   id="path1016"
   d="m 1296.7669,306.27238 c 0.4418,-1.05143 1.2147,-1.7419 1.8402,-2.1573 0.5477,-0.36365 0.9821,-0.51655 0.9821,-0.51655 l 0.653,0.93941 c -0.019,0.008 -1.2636,-6.9e-4 -2.279,1.77314 z" /><polygon
   style="fill:#095a98"
   id="polygon1018"
   points="213.74,595.89 201.77,541.7 153.33,629.34 "
   transform="matrix(-0.01035828,-0.02512894,0.02512894,-0.01035828,1288.0207,316.58787)" /><path
   style="fill:#000000;fill-opacity:0.50853242;stroke:none;stroke-width:0.52877384;stroke-miterlimit:4;stroke-dasharray:none;stroke-opacity:0.56862745"
   d="m 1273.9285,287.93739 c -0.1694,-2.4e-4 -0.3067,0.56724 -0.3067,1.26732 0,0.7001 0.1373,1.2676 0.3067,1.26736 0.1694,2.4e-4 0.3067,-0.56726 0.3067,-1.26736 0,-0.70008 -0.1373,-1.26756 -0.3067,-1.26732 z"
   id="path4726"
   inkscape:connector-curvature="0" />
<text
   transform="matrix(-0.88617944,0.39354239,-0.36008017,-0.96853205,0,0)"
   id="text4593"
   y="-782.95691"
   x="-1101.1899"
   style="font-style:normal;font-variant:normal;font-weight:bold;font-stretch:normal;font-size:22.3849px;line-height:1.25;font-family:'Open Sans';-inkscape-font-specification:'Open Sans Bold';text-align:center;text-decoration:none;text-decoration-line:none;text-decoration-color:#000000;letter-spacing:0px;word-spacing:0px;text-anchor:middle;fill:#000000;fill-opacity:1;stroke:none;stroke-width:0.821176;stroke-opacity:0.568627"
   xml:space="preserve"><tspan
     style="font-style:normal;font-variant:normal;font-weight:bold;font-stretch:normal;font-family:'Open Sans';-inkscape-font-specification:'Open Sans Bold';fill:#000000;fill-opacity:1;stroke:none;stroke-width:0.821176"
     y="-782.95691"
     x="-1101.1899"
     id="tspan4591"
     sodipodi:role="line">}</tspan></text>


</g></svg>
