<?xml version="1.0" encoding="UTF-8" standalone="no"?>
<!-- Created with Inkscape (http://www.inkscape.org/) -->

<svg
   xmlns:dc="http://purl.org/dc/elements/1.1/"
   xmlns:cc="http://creativecommons.org/ns#"
   xmlns:rdf="http://www.w3.org/1999/02/22-rdf-syntax-ns#"
   xmlns:svg="http://www.w3.org/2000/svg"
   xmlns="http://www.w3.org/2000/svg"
   xmlns:sodipodi="http://sodipodi.sourceforge.net/DTD/sodipodi-0.dtd"
   xmlns:inkscape="http://www.inkscape.org/namespaces/inkscape"
   width="97.55719mm"
   height="79.197769mm"
   viewBox="0 0 97.557186 79.197771"
   version="1.1"
   id="svg5"
   xml:space="preserve"
   inkscape:version="0.92.4 (5da689c313, 2019-01-14)"
   sodipodi:docname="validiraptor_bak.svg"
   inkscape:export-filename="allosaurus.png"
   inkscape:export-xdpi="300"
   inkscape:export-ydpi="300"><metadata
     id="metadata55"><rdf:RDF><cc:Work
         rdf:about=""><dc:format>image/svg+xml</dc:format><dc:type
           rdf:resource="http://purl.org/dc/dcmitype/StillImage" /><dc:title></dc:title></cc:Work></rdf:RDF></metadata><sodipodi:namedview
     id="namedview7"
     pagecolor="#ffffff"
     bordercolor="#000000"
     borderopacity="0.25"
     inkscape:showpageshadow="2"
     inkscape:pageopacity="0.0"
     inkscape:pagecheckerboard="0"
     inkscape:deskcolor="#d1d1d1"
     inkscape:document-units="mm"
     showgrid="false"
     inkscape:zoom="0.81090836"
     inkscape:cx="10.507396"
     inkscape:cy="221.80222"
     inkscape:window-width="2048"
     inkscape:window-height="1089"
     inkscape:window-x="-8"
     inkscape:window-y="-8"
     inkscape:window-maximized="1"
     inkscape:current-layer="layer1"
     inkscape:snap-global="false" /><defs
     id="defs2">
	
	
	
	
	
	
	
	
	
	
	

	
	
	
	
	
	
	
	
	
	
	
</defs><g
     inkscape:label="Ebene 1"
     inkscape:groupmode="layer"
     id="layer1"
     transform="translate(-1198.2966,-281.63854)"><path
   inkscape:connector-curvature="0"
   style="fill:#445500;fill-opacity:0.5085324;stroke:none;stroke-width:0.52877384;stroke-miterlimit:4;stroke-dasharray:none;stroke-opacity:0.56862745"
   d="m 1274.0205,286.62667 c -1.0491,-0.0104 -2.1047,0.14654 -3.0098,0.44848 -2.5033,1.14197 -5.5512,3.08209 -6.6145,6.84033 -0.7263,9.45094 -3.4509,11.76594 -4.7509,12.64591 -10.587,1.56987 -16.7066,6.00832 -24.0439,6.41892 -10.6218,0.5944 -23.3313,0.78774 -31.469,2.46468 -0.5765,1.1016 -0.7177,1.0417 2.6981,0.40919 9.2827,0.4535 18.6549,2.74558 27.8595,6.18994 0.1775,2.8797 3.7496,5.93539 3.1489,8.02998 0,0 -1.1954,1.19587 -1.667,2.22892 -0.6949,1.33127 -0.942,3.18762 -1.2019,4.20312 -0.2597,1.01545 -1.3744,1.25858 -1.3586,2.28129 -0.8896,0.59255 -1.5811,1.7814 -0.6508,5.12313 1.3334,4.7896 -0.09,8.86594 1.1747,10.48428 0.6083,3.53496 6.309,-0.86434 9.4559,1.4507 -1.0389,-2.11833 -1.911,-2.64574 -3.8079,-4.9578 2.405,0.3748 -0.3097,-4.97746 2.1417,-3.6286 -1.82,-2.71901 -2.4262,-0.14596 -3.3924,1.36897 -2.3856,-4.46239 -1.9796,-4.91987 -2.6706,-8.19077 3.462,-2.61865 5.5982,-5.91929 9.2192,-8.99653 -0.4834,1.6633 -0.2492,4.11869 -3.0116,7.7486 -0.3969,4.4724 0.2469,9.04541 1.2326,12.91418 1.8708,2.53468 8.3733,1.63469 11.8004,1.49046 -3.048,-4.82699 -5.8072,-1.59161 -6.5658,-4.48313 -0.5459,-0.67489 -1.0799,-1.52945 -1.5433,-2.46378 0.1092,-0.37526 0.3923,-0.50677 1.0596,-0.13955 -0.6901,-1.03106 -1.2053,-1.29913 -1.6323,-1.15444 -0.9705,-2.47141 -1.3252,-5.16948 -0.1111,-6.54539 2.4029,-2.1321 7.9161,-5.77813 6.9573,-8.84024 -0.3218,-1.02771 0.5281,-2.17787 0.6107,-3.46871 1.3957,-4.10317 6.5548,-2.22287 9.6659,-4.99215 4.2644,-2.34723 3.6904,-7.50835 5.5716,-11.33881 1.223,-3.5989 2.2477,-8.56235 5.9975,-10.25393 2.8578,-0.39874 6.4917,-1.06387 9.6058,-2.24788 2.018,-0.54732 3.5902,-2.22724 4.1444,-3.96148 -0.069,0.0647 -0.1247,0.11065 -0.1247,0.11065 0,0 -2.3906,0.0941 -3.2081,0.1748 -5.8029,0.57298 -9.6766,-0.27037 -13.5596,0.50042 1.1848,-0.23513 2.2099,-1.26821 4.7171,-1.149 3.4329,0.16319 8.2789,0.0146 12.2177,-0.11699 0.033,0 0.06,1.9e-4 0.086,0.003 0.3128,-1.49782 -0.1738,-2.96203 -1.8332,-3.69906 -2.1701,-0.96386 -7.688,-0.9011 -9.4554,-1.98774 -0.9942,-0.61128 -2.3329,-0.90048 -3.6819,-0.9137 z m -0.092,1.1472 a 1.6351668,1.4307709 0 0 1 1.635,1.43084 1.6351668,1.4307709 0 0 1 -1.635,1.43085 1.6351668,1.4307709 0 0 1 -1.6354,-1.43085 1.6351668,1.4307709 0 0 1 1.6354,-1.43084 z m 0,0.16352 a 0.30659376,1.2672542 0 0 0 -0.3067,1.26732 0.30659376,1.2672542 0 0 0 0.3067,1.26736 0.30659376,1.2672542 0 0 0 0.3067,-1.26736 0.30659376,1.2672542 0 0 0 -0.3067,-1.26732 z"
   id="path4726" /><g
   id="g4776"
   transform="matrix(0.8740063,0,0,0.8740063,204.56974,-41.449521)"><path
     id="path9146"
     transform="matrix(0.26458333,0,0,0.26458333,69.406528,-280.9953)"
     d="m 4293.6875,2567.9375 c -34.3878,6.3473 -57.6748,19.3414 -81.8047,24.4844 -2.8558,2.0676 -5.6879,4.1422 -8.4824,6.1914 -7.7397,5.6752 -15.2584,13.0506 -25.2149,14.2773 3.2901,-0.4051 16.046,-1.9924 19.084,-3.3984 3.0376,-1.4181 76.4663,-58.3164 109.1524,-23.582 2.3663,2.5139 4.4694,5.2868 6.2949,8.2246 0.909,1.4716 1.7502,2.9824 2.5137,4.5195 0.3787,0.7708 0.7365,1.5423 1.0703,2.3164 0.1625,0.3851 0.3252,0.7729 0.4726,1.1504 l 0.2129,0.5605 0.094,0.2657 c 0,0.076 0.064,0.1939 0.057,0.1875 l 11.9649,1.6562 c -0.087,-0.2271 -2.7416,-8.4459 -8.1524,-16.1601 -2.3701,-3.3292 -5.0499,-6.4378 -8.041,-9.2422 -5.7211,-5.3929 -12.2609,-9.1417 -19.2207,-11.4512 z"
     style="fill:#badffd;stroke-width:0.33143386"
     inkscape:connector-curvature="0" /><path
     d="m 1180.6297,417.03526 c 0.5331,0.40269 1.1026,0.75194 1.6828,1.07977 0.5807,0.32855 1.1794,0.62628 1.7879,0.90431 1.2199,0.54965 2.4907,0.99933 3.8,1.34495 1.3098,0.33877 2.6603,0.57514 4.0385,0.64958 0.6879,0.0477 1.3839,0.0351 2.0801,0.003 0.697,-0.054 1.3957,-0.12524 2.0884,-0.27371 0.3477,-0.0618 0.6898,-0.16035 1.0337,-0.2473 l 0.1289,-0.0347 0.1274,-0.0412 0.2545,-0.0832 0.2539,-0.0838 c 0.084,-0.028 0.1701,-0.0539 0.2525,-0.0892 l 0.4973,-0.20101 c 0.081,-0.0331 0.1706,-0.0683 0.2436,-0.10016 l 0.2217,-0.0977 0.8865,-0.39466 3.5545,-1.56767 c 1.188,-0.52051 2.3795,-1.036 3.5786,-1.55141 l 0.4492,-0.19506 c 0.1497,-0.0643 0.3013,-0.12462 0.4509,-0.19094 l 0.9033,-0.38727 1.8246,-0.77205 c -0.6688,-0.002 -1.3318,0.059 -1.9927,0.13377 -0.6604,0.0787 -1.3175,0.17861 -1.9706,0.29821 -1.3061,0.23915 -2.5963,0.55286 -3.8709,0.91339 -1.277,0.35695 -2.5308,0.78222 -3.7736,1.23832 l -0.9271,0.35352 -0.2316,0.0897 c -0.078,0.0311 -0.1419,0.0513 -0.214,0.0783 l -0.4182,0.15198 c -0.1382,0.0519 -0.2843,0.088 -0.4258,0.13368 l -0.2135,0.0651 -0.1065,0.033 -0.1091,0.0262 c -0.2912,0.0704 -0.5776,0.15233 -0.8754,0.20269 -0.1479,0.0288 -0.2941,0.0617 -0.4428,0.0878 l -0.4488,0.0673 -0.224,0.035 -0.2271,0.0243 -0.454,0.0507 c -0.6089,0.0479 -1.2221,0.087 -1.841,0.0842 -1.2378,0.0113 -2.4915,-0.0841 -3.7508,-0.23016 -1.2597,-0.15121 -2.5235,-0.36798 -3.7919,-0.62335 -1.2698,-0.25872 -2.5402,-0.55658 -3.8293,-0.8842 z"
     id="path9148"
     inkscape:connector-curvature="0"
     style="fill:#badffd;stroke-width:0.08769187" /><path
     id="path9150"
     transform="matrix(0.26458333,0,0,0.26458333,69.406528,-280.9953)"
     d="m 4284.5371,2609.3086 c -2.3122,0.056 -4.1756,0.3287 -5.5098,0.8789 -44.5587,18.3676 -98.8906,13.6992 -98.8906,13.6992 55.9476,14.4231 92.0157,-6.5805 105.2871,-4.582 4.8443,0.7303 19.6452,4.8207 36.959,9.0469 4.3386,-3.523 7.1627,-7.9307 9.2266,-12.793 -19.8232,-2.9385 -37.4038,-6.4861 -47.0723,-6.25 z"
     style="fill:#226654;stroke-width:0.33143386"
     inkscape:connector-curvature="0" /><path
     id="path9152"
     transform="matrix(0.26458333,0,0,0.26458333,69.406528,-280.9953)"
     d="m 4315.7109,2570.6191 c -2.6735,3.5514 -4.864,7.0428 -6.6386,10.4571 -5.2604,10.0862 -6.8893,19.4576 -6.6739,27.5449 0.1361,5.0449 0.9928,9.5896 2.1387,13.498 0.1058,0.3512 0.2125,0.7039 0.3184,1.0469 0.7767,2.4753 1.6925,4.7751 2.6699,6.8789 0.9825,2.1231 2.0441,4.0494 3.0957,5.793 2.6135,-1.0912 5.101,-2.5188 7.3398,-4.5117 1.4139,-0.7782 2.691,-1.6357 3.8731,-2.5489 -0.2282,-0.3839 -0.4551,-0.7588 -0.6895,-1.1796 -1.3867,-2.4847 -2.7649,-5.486 -3.7929,-8.9024 -0.6698,-2.2185 -1.145,-4.4418 -1.4258,-6.666 -0.7639,-6.0183 -0.1076,-12.0475 1.9609,-18.0566 1.4132,-4.1086 3.4838,-8.2039 6.2149,-12.2813 -2.7674,-6.5888 -8.3907,-11.0723 -8.3907,-11.0723 z"
     style="fill:#40907a;stroke-width:0.33143386"
     inkscape:connector-curvature="0" /><path
     id="path9154"
     transform="matrix(0.26458333,0,0,0.26458333,69.406528,-280.9953)"
     d="m 4297.3945,2567.2852 c -5.0005,0.832 -9.763,1.8107 -14.332,2.8906 -1.5264,6.0657 -3.5458,13.2014 -6.2559,21.4394 -2.0451,6.2155 -2.6933,12.8465 -1.9589,19.752 0.2381,2.2306 0.6156,4.4919 1.1406,6.7754 1.5042,6.5599 4.188,13.3168 8.0351,20.1523 0.3024,0.5439 0.6205,1.0914 0.9395,1.6367 0.465,0.7899 0.9374,1.5448 1.4101,2.3008 4.0678,-1.6797 8.8193,-2.446 13.6387,-3.4121 -1.0589,-1.5306 -2.1255,-3.1437 -3.1679,-4.8711 -2.764,-4.5751 -5.3395,-9.781 -7.0274,-15.293 -1.0224,-3.3273 -1.7197,-6.7643 -1.9473,-10.2402 -0.2721,-4.2066 0.1475,-8.4629 1.5293,-12.6582 2.8264,-8.5933 4.9605,-16.0947 6.5645,-22.4707 0.5405,-2.1431 1.0037,-4.114 1.4316,-6.0019 z"
     style="fill:#96ce58;stroke-width:0.33143386"
     inkscape:connector-curvature="0" /><path
     id="path9156"
     transform="matrix(0.26458333,0,0,0.26458333,69.406528,-280.9953)"
     d="m 4270.7734,2573.4277 c -7.0146,2.0503 -13.5639,4.2741 -19.8183,6.4883 -0.6715,1.8644 -1.34,3.7264 -2.0957,5.7637 -4.3287,11.6752 -5.505,22.2801 -4.8262,31.8359 0.2268,3.1375 0.6456,6.1629 1.2246,9.0723 1.6324,8.2431 4.5012,15.5814 7.5645,22.0273 1.977,4.1636 4.033,7.9527 5.8925,11.377 2.5671,4.7334 5.0183,9.2526 5.9473,12.459 3.096,-0.2357 6.1701,-0.742 9.3203,-1.5703 -0.018,-1 -0.1553,-1.9907 -0.4609,-2.9668 -1.1004,-3.514 0.9489,-7.365 2.039,-11.5801 -0.7297,-1.383 -1.4927,-2.7923 -2.2812,-4.2442 -1.3826,-2.5483 -2.8198,-5.1972 -4.2129,-7.9687 -3.2848,-6.5297 -6.3123,-13.7249 -7.75,-21.8008 -0.4516,-2.5252 -0.7428,-5.1393 -0.8437,-7.8457 v 0 c -0.2495,-7.0181 0.8163,-14.6539 3.9238,-23.0313 2.5687,-6.9232 4.662,-12.8819 6.3769,-18.0137 z"
     style="fill:#f7c545;stroke-width:0.33143386"
     inkscape:connector-curvature="0" /><path
     id="path9158"
     transform="matrix(0.26458333,0,0,0.26458333,69.406528,-280.9953)"
     d="m 4234.709,2585.7012 c -5.1006,1.7798 -10.0915,3.4301 -15.0508,4.8027 -0.4719,2.8986 -0.8312,5.823 -0.998,8.6758 -0.4286,7.3864 -0.3328,14.934 0.2871,22.5879 0.2112,2.633 0.4839,5.2786 0.8203,7.9336 0.525,4.1538 1.2019,8.3308 2.0293,12.5234 0.2744,1.3903 0.5441,2.7053 0.8125,3.9512 5.1919,18.5431 7.914,21.9258 7.914,21.9258 4.9981,3.6387 17.9297,3.6464 17.9297,3.6464 0,0 -5.4566,-7.1152 -9.8965,-22.9394 -0.8817,-3.1504 -1.7212,-6.6467 -2.4726,-10.5 -0.6357,-3.2665 -1.1765,-6.5187 -1.6172,-9.7559 -0.4165,-3.088 -0.7463,-6.1553 -0.9844,-9.207 -0.5442,-6.9863 -0.6165,-13.8658 -0.2129,-20.5859 0.2653,-4.423 0.758,-8.7758 1.4395,-13.0586 z"
     style="fill:#f19934;stroke-width:0.33143386"
     inkscape:connector-curvature="0" /><path
     id="path9160"
     transform="matrix(0.26458333,0,0,0.26458333,69.406528,-280.9953)"
     d="m 4202.0332,2594.0312 c -1.624,0.1822 -3.2553,0.3316 -4.9043,0.4239 -4.4737,0.2503 -9.0887,0.4742 -13.707,0.6992 2.3657,3.8596 4.3276,8.6244 5.8457,14.207 1.3481,4.9407 2.3476,10.5097 2.9883,16.6348 0,0.1187 0.037,0.2377 0.037,0.3594 0.2116,2.1051 0.3844,4.2766 0.5136,6.5097 0.013,0.2227 0.02,0.4369 0.031,0.6582 0.1163,0.043 0.2333,0.084 0.3496,0.127 0.5153,8.3589 7.6283,17.0557 11.4746,24.6133 1.5544,0.6325 3.0337,1.183 4.2207,1.5097 0,0 -0.6109,-8.1897 -1.4824,-18.3672 -0.3364,-3.9255 -0.7086,-8.1668 -1.0938,-12.3984 -0.1587,-1.7194 -0.3173,-3.4334 -0.4726,-5.1289 -1.0375,-10.9799 -2.0965,-20.9491 -2.7617,-23.8711 0,0 0,-0.012 0,-0.016 -0.4494,-1.9748 -0.7594,-3.9758 -1.0391,-5.961 z"
     style="fill:#95c5e5;stroke-width:0.33143386"
     inkscape:connector-curvature="0" /><path
     id="path9162"
     transform="matrix(0.26458333,0,0,0.26458333,69.406528,-280.9953)"
     d="m 4169.0525,2595.8061 -15.1731,0.7749 c -2.0071,-3.3736 12.2621,14.9507 15.1831,28.7139 4.5974,1.4656 9.187,3.0071 13.7695,4.6153 -0.9407,-6.5913 -2.8996,-12.404 -4.9531,-17.0469 -3.2432,-7.3317 -8.8264,-17.0572 -8.8264,-17.0572 z"
     style="fill:#0877bd;stroke-width:0.33143386"
     inkscape:connector-curvature="0"
     sodipodi:nodetypes="cccccc" /><path
     id="polygon9164"
     transform="matrix(0.26458333,0,0,0.26458333,69.406528,-280.9953)"
     d="m 4145.7272,2596.8386 -23.1115,1.3612 17.3296,18.851 c 4.9479,1.2172 9.8933,2.5294 14.832,3.9316 z"
     style="fill:#095a98;stroke-width:0.33143386"
     inkscape:connector-curvature="0"
     sodipodi:nodetypes="ccccc" /></g><text
   xml:space="preserve"
   style="font-style:normal;font-variant:normal;font-weight:bold;font-stretch:normal;font-size:22.38487244px;line-height:1.25;font-family:'Open Sans';-inkscape-font-specification:'Open Sans Bold';text-align:center;text-decoration:none;text-decoration-line:none;text-decoration-color:#000000;letter-spacing:0px;word-spacing:0px;text-anchor:middle;fill:#000000;fill-opacity:1;stroke:none;stroke-width:0.82117552;stroke-opacity:0.56862745"
   x="1111.2017"
   y="799.70941"
   id="text4589"
   transform="matrix(0.88617944,-0.39354239,0.36008017,0.96853205,0,0)"><tspan
     sodipodi:role="line"
     id="tspan4587"
     x="1111.2017"
     y="799.70941"
     style="font-style:normal;font-variant:normal;font-weight:bold;font-stretch:normal;font-family:'Open Sans';-inkscape-font-specification:'Open Sans Bold';fill:#000000;fill-opacity:1;stroke:none;stroke-width:0.82117552">}</tspan></text>

<text
   transform="matrix(-0.88617944,0.39354239,-0.36008017,-0.96853205,0,0)"
   id="text4593"
   y="-786.81183"
   x="-1100.7281"
   style="font-style:normal;font-variant:normal;font-weight:bold;font-stretch:normal;font-size:22.38487244px;line-height:1.25;font-family:'Open Sans';-inkscape-font-specification:'Open Sans Bold';text-align:center;text-decoration:none;text-decoration-line:none;text-decoration-color:#000000;letter-spacing:0px;word-spacing:0px;text-anchor:middle;fill:#000000;fill-opacity:1;stroke:none;stroke-width:0.82117552;stroke-opacity:0.56862745"
   xml:space="preserve"><tspan
     style="font-style:normal;font-variant:normal;font-weight:bold;font-stretch:normal;font-family:'Open Sans';-inkscape-font-specification:'Open Sans Bold';fill:#000000;fill-opacity:1;stroke:none;stroke-width:0.82117552"
     y="-786.81183"
     x="-1100.7281"
     id="tspan4591"
     sodipodi:role="line">}</tspan></text>

<g
   id="g1020"
   transform="matrix(-7.4070201e-4,-0.02717,0.02717,-7.4070201e-4,1281.8797,317.69192)"
   inkscape:transform-center-x="0.57623633"
   inkscape:transform-center-y="-0.6094373"><path
     d="m 663.36,292.92 c 0.18,0.71 7.86,25.61 7.86,54.04 -0.09,12.33 -1.32,24.65 -3.85,36.76 -14.59,70.79 -74.19,117.22 -142.17,133 -52.21,12.12 -108.46,10.36 -161.64,9.24 -28.95,-0.61 -60.3,-5.8 -87.02,8.42 8.83,-4.7 43.09,-22.88 53.03,-24.67 9.96,-1.76 289.92,11.57 310.48,-130.86 1.49,-10.31 1.88,-20.8 1.3,-31.22 -0.3,-5.21 -0.84,-10.4 -1.62,-15.52 -0.4,-2.56 -0.85,-5.09 -1.37,-7.58 -0.27,-1.23 -0.54,-2.47 -0.83,-3.66 l -0.45,-1.75 -0.23,-0.82 c -0.06,-0.22 -0.17,-0.59 -0.18,-0.56 z"
     id="path1000"
     inkscape:connector-curvature="0"
     style="fill:#badffd" /><path
     d="m 286.28,434.18 c 2.34,-7.25 5.37,-14.24 8.64,-21.1 3.27,-6.87 6.91,-13.57 10.77,-20.15 7.79,-13.12 16.71,-25.64 26.67,-37.44 10.01,-11.74 21.07,-22.79 33.45,-32.51 6.11,-4.95 12.69,-9.39 19.4,-13.65 6.86,-4.06 13.85,-7.97 21.29,-11.12 3.65,-1.7 7.49,-3.02 11.27,-4.46 l 1.43,-0.52 1.46,-0.45 2.92,-0.89 2.92,-0.88 c 0.97,-0.29 1.94,-0.61 2.94,-0.82 l 5.96,-1.38 c 0.97,-0.22 2.04,-0.48 2.93,-0.66 l 2.71,-0.54 10.86,-2.12 43.45,-8.64 c 14.5,-2.92 29,-5.91 43.57,-8.95 l 5.47,-1.12 c 1.82,-0.38 3.63,-0.81 5.46,-1.17 l 10.97,-2.3 22.09,-4.74 c -6.23,4.4 -12.82,8.17 -19.48,11.8 -6.68,3.59 -13.47,6.96 -20.35,10.12 -13.76,6.32 -27.86,11.84 -42.12,16.82 -14.26,5.03 -28.75,9.27 -43.34,13.15 l -10.97,2.77 -2.75,0.68 c -0.93,0.22 -1.66,0.45 -2.51,0.67 l -4.9,1.32 c -1.63,0.42 -3.23,1.04 -4.85,1.54 l -2.42,0.79 -1.21,0.39 -1.19,0.47 c -3.18,1.25 -6.39,2.36 -9.5,3.84 -1.57,0.7 -3.15,1.35 -4.71,2.08 l -4.63,2.31 -2.32,1.14 -2.28,1.26 -4.57,2.5 c -6,3.54 -11.98,7.19 -17.74,11.27 -11.63,8 -22.71,17.1 -33.51,26.71 -10.77,9.66 -21.15,19.96 -31.32,30.65 -10.16,10.73 -20.07,21.83 -29.96,33.33 z"
     id="path1002"
     inkscape:connector-curvature="0"
     style="fill:#badffd" /><path
     d="m 779.11,101.34 64.83,30.94 C 714.57,164.22 575.64,356.18 530.32,366.34 388.43,398.17 262.31,503.84 262.31,503.84 375.52,371.28 501,360.67 530.32,332.74 559.63,304.81 729.23,85.68 779.11,101.34 Z"
     id="path1004"
     inkscape:connector-curvature="0"
     style="fill:#226654" /><path
     d="m 689.49,400.53 c -12.76,-4.14 -24.22,-8.97 -34.52,-14.33 -30.47,-15.8 -50.73,-36.13 -64.21,-56.48 -8.4,-12.7 -14.16,-25.41 -18.1,-37.05 -0.35,-1.05 -0.7,-2.1 -1.03,-3.13 -2.37,-7.46 -4.09,-14.73 -5.32,-21.62 -3.97,-22.03 -2.97,-41.18 -2.1,-49.64 12.5,0.31 25.84,3.85 40.1,4.58 -0.03,0.18 -1.91,10.3 -0.12,27.51 0.88,8.54 2.67,18.34 6.05,28.56 2.19,6.64 4.87,12.96 8.03,18.94 8.54,16.19 20.61,29.94 36.13,41.2 10.61,7.7 22.82,14.23 36.63,19.57 4.58,21.07 -1.54,41.89 -1.54,41.89 z"
     id="path1006"
     inkscape:connector-curvature="0"
     style="fill:#40907a" /><path
     d="m 674.34,463.65 v 0 c -5.18,14.04 -11.75,26.46 -19.58,37.41 -7.67,-8.28 -21.47,-22.29 -42.51,-40.61 -14.73,-12.84 -33.02,-27.79 -55.24,-44.38 -15.82,-11.81 -28.91,-27.07 -39.06,-45.4 -3.28,-5.92 -6.26,-12.16 -8.92,-18.71 -7.65,-18.81 -12.73,-40.15 -15.07,-63.7 -0.19,-1.87 -0.36,-3.77 -0.51,-5.67 -2.4,-30.07 0.07,-56.38 1.91,-70.22 12.24,-0.16 25.6,0.14 40.29,0.89 -1.38,9.15 -4.5,34.31 -2.49,63.52 1.1,16.09 3.76,33.41 9.14,49.95 3.24,9.99 7.47,19.69 12.93,28.67 6.62,10.86 15.03,20.65 25.71,28.62 21.87,16.33 40.14,31.16 55.15,44.13 16.52,14.26 29.11,26.27 38.25,35.5 z"
     id="path1008"
     inkscape:connector-curvature="0"
     style="fill:#96ce58" /><path
     d="m 636.12,522.29 c -12.53,11.65 -27.1,20.9 -43.42,28.01 -9.81,-8.6 -27.3,-22.99 -56.38,-44.2 -10.97,-7.99 -23.58,-16.96 -38.06,-26.95 -30.92,-21.34 -52.2,-45.5 -67.08,-70.28 -4.88,-8.14 -9.08,-16.34 -12.69,-24.53 -10.25,-23.19 -15.88,-46.29 -19.48,-67.52 -2.33,-13.71 -3.82,-26.63 -5.16,-38.31 -1.86,-16.14 -3.63,-31.55 -6.89,-41.08 13.73,-8.15 28.6,-14.31 46.47,-18.48 5.65,15.23 7.75,33.43 10.09,53.85 1,8.69 2.04,17.72 3.4,26.98 3.2,21.82 8.19,44.84 18.63,67.28 3.26,7.02 7.07,13.98 11.51,20.84 v 0.01 c 11.54,17.77 27.41,34.78 49.6,50.09 24.92,17.19 44.66,31.55 60.22,43.38 28.04,21.29 42.52,34.36 49.24,40.91 z"
     id="path1010"
     inkscape:connector-curvature="0"
     style="fill:#f7c545" /><path
     d="m 536.84,565.83 v 0 l 3.71,-0.74 c -22.75,-13.55 -44.08,-29.65 -63.81,-48.15 -14.06,-13.16 -27.3,-27.55 -39.65,-43.09 -12.64,-15.9 -24.38,-33.02 -35.14,-51.22 -4.7,-7.95 -9.2,-16.1 -13.52,-24.45 -4.52,-8.76 -8.82,-17.73 -12.91,-26.9 -4.82,-10.82 -8.8,-20.91 -12.08,-30.22 -16.45,-46.78 -15.3,-73.81 -15.3,-73.81 0,0 -31.93,22.42 -37.97,40.07 0,0 -0.86,13.07 18.44,67.87 1.5,3.54 3.11,7.26 4.84,11.17 5.22,11.79 10.78,23.28 16.68,34.45 3.77,7.14 7.68,14.15 11.72,21.02 11.73,19.98 24.57,38.79 38.43,56.29 6.31,7.96 13.43,15.73 20.81,23.08 21.5,21.4 45.24,39.28 57.79,48.24 h 0.01 z"
     id="path1012"
     inkscape:connector-curvature="0"
     style="fill:#f19934" /><path
     d="m 381.96,567.74 c -22.71,0.42 -43.18,1.48 -61.64,3.03 -0.66,-14.05 -4.13,-29.79 -10.29,-46.87 -5.23,-14.54 -12.41,-30.03 -21.44,-46.27 -0.18,-0.31 -0.35,-0.63 -0.53,-0.95 -3.12,-5.57 -6.46,-11.23 -10.01,-16.97 -12.85,-20.74 -25.84,-38.12 -34.45,-49.02 0,0 16.93,-32.49 27.49,-45.27 0,0 12.68,21.29 28.16,47.94 5.97,10.28 12.4,21.4 18.78,32.52 2.59,4.52 5.17,9.03 7.72,13.49 16.46,28.92 31.12,55.38 34.54,63.75 0.01,0.02 0.02,0.04 0.02,0.06 6.53,15.98 16,30.95 21.65,44.56 z"
     id="path1014"
     inkscape:connector-curvature="0"
     style="fill:#95c5e5" /><path
     d="m 228.25,442.14 c 29.57,29.77 42.22,65.74 47.58,92.84 4.69,23.73 3.8,40.65 3.8,40.65 l -41.11,9.04 c 0,-0.77 17.74,-42.97 -28.36,-102.38 z"
     id="path1016"
     inkscape:connector-curvature="0"
     style="fill:#0877bd" /><polygon
     points="213.74,595.89 201.77,541.7 153.33,629.34 "
     id="polygon1018"
     style="fill:#095a98" /></g></g></svg>